<svg width="25" height="25" viewBox="0 0 25 25" fill="none" xmlns="http://www.w3.org/2000/svg">
<path d="M4.01025 8.97917C3.85821 8.2943 3.88156 7.58213 4.07812 6.90869C4.27469 6.23525 4.63811 5.62234 5.1347 5.12679C5.63128 4.63125 6.24495 4.26911 6.9188 4.07395C7.59265 3.8788 8.30487 3.85694 8.98942 4.01042C9.3662 3.42115 9.88525 2.93621 10.4987 2.6003C11.1122 2.26439 11.8004 2.08832 12.4998 2.08832C13.1993 2.08832 13.8874 2.26439 14.5009 2.6003C15.1144 2.93621 15.6335 3.42115 16.0103 4.01042C16.6958 3.85627 17.4093 3.87803 18.0842 4.07366C18.7591 4.26929 19.3736 4.63244 19.8705 5.12933C20.3674 5.62621 20.7305 6.2407 20.9262 6.91563C21.1218 7.59055 21.1436 8.30399 20.9894 8.98958C21.5787 9.36636 22.0636 9.88542 22.3995 10.4989C22.7354 11.1124 22.9115 11.8006 22.9115 12.5C22.9115 13.1994 22.7354 13.8876 22.3995 14.5011C22.0636 15.1146 21.5787 15.6336 20.9894 16.0104C21.1429 16.695 21.121 17.4072 20.9259 18.081C20.7307 18.7549 20.3686 19.3686 19.873 19.8651C19.3775 20.3617 18.7646 20.7251 18.0911 20.9217C17.4177 21.1183 16.7055 21.1416 16.0207 20.9896C15.6444 21.5811 15.1249 22.0681 14.5104 22.4055C13.8958 22.743 13.2061 22.9198 12.505 22.9198C11.804 22.9198 11.1142 22.743 10.4997 22.4055C9.88517 22.0681 9.36571 21.5811 8.98942 20.9896C8.30487 21.1431 7.59265 21.1212 6.9188 20.926C6.24495 20.7309 5.63128 20.3688 5.1347 19.8732C4.63811 19.3777 4.27469 18.7648 4.07812 18.0913C3.88156 17.4179 3.85821 16.7057 4.01025 16.0208C3.41646 15.645 2.92735 15.1252 2.58843 14.5096C2.2495 13.894 2.07178 13.2027 2.07178 12.5C2.07178 11.7973 2.2495 11.106 2.58843 10.4904C2.92735 9.87482 3.41646 9.35495 4.01025 8.97917Z" stroke="url(#paint0_radial_32_7416)" stroke-width="2.08333" stroke-linecap="round" stroke-linejoin="round"/>
<path d="M9.375 12.5L11.4583 14.5833L15.625 10.4167" stroke="url(#paint1_radial_32_7416)" stroke-width="2.08333" stroke-linecap="round" stroke-linejoin="round"/>
<defs>
<radialGradient id="paint0_radial_32_7416" cx="0" cy="0" r="1" gradientUnits="userSpaceOnUse" gradientTransform="translate(12.4916 12.5041) scale(10.4199 10.4158)">
<stop stop-color="#E9FF90"/>
<stop offset="1" stop-color="#CCFF00"/>
</radialGradient>
<radialGradient id="paint1_radial_32_7416" cx="0" cy="0" r="1" gradientUnits="userSpaceOnUse" gradientTransform="translate(12.5 12.5) scale(3.125 2.08333)">
<stop stop-color="#E9FF90"/>
<stop offset="1" stop-color="#CCFF00"/>
</radialGradient>
</defs>
</svg>
