<svg width="50" height="50" viewBox="0 0 50 50" fill="none" xmlns="http://www.w3.org/2000/svg">
<path d="M25 8.33333H12.5C11.3494 8.33333 10.4167 9.26607 10.4167 10.4167V18.75C10.4167 19.9006 11.3494 20.8333 12.5 20.8333H25C26.1506 20.8333 27.0834 19.9006 27.0834 18.75V10.4167C27.0834 9.26607 26.1506 8.33333 25 8.33333Z" stroke="white" stroke-width="4.16667" stroke-linecap="round" stroke-linejoin="round"/>
<path d="M37.5 29.1667H25C23.8494 29.1667 22.9167 30.0994 22.9167 31.25V39.5833C22.9167 40.7339 23.8494 41.6667 25 41.6667H37.5C38.6506 41.6667 39.5834 40.7339 39.5834 39.5833V31.25C39.5834 30.0994 38.6506 29.1667 37.5 29.1667Z" stroke="white" stroke-width="4.16667" stroke-linecap="round" stroke-linejoin="round"/>
</svg>
