<svg width="20" height="20" viewBox="0 0 20 20" fill="none" xmlns="http://www.w3.org/2000/svg">
<path d="M16.6666 5.83333H9.16663" stroke="white" stroke-width="1.66667" stroke-linecap="round" stroke-linejoin="round"/>
<path d="M11.6666 14.1667H4.16663" stroke="white" stroke-width="1.66667" stroke-linecap="round" stroke-linejoin="round"/>
<path d="M14.1666 16.6667C15.5473 16.6667 16.6666 15.5474 16.6666 14.1667C16.6666 12.786 15.5473 11.6667 14.1666 11.6667C12.7859 11.6667 11.6666 12.786 11.6666 14.1667C11.6666 15.5474 12.7859 16.6667 14.1666 16.6667Z" stroke="white" stroke-width="1.66667" stroke-linecap="round" stroke-linejoin="round"/>
<path d="M5.83337 8.33333C7.21409 8.33333 8.33337 7.21404 8.33337 5.83333C8.33337 4.45262 7.21409 3.33333 5.83337 3.33333C4.45266 3.33333 3.33337 4.45262 3.33337 5.83333C3.33337 7.21404 4.45266 8.33333 5.83337 8.33333Z" stroke="white" stroke-width="1.66667" stroke-linecap="round" stroke-linejoin="round"/>
</svg>
