<svg width="20" height="20" viewBox="0 0 20 20" fill="none" xmlns="http://www.w3.org/2000/svg">
<path d="M15 17.5C15 15.7319 14.2976 14.0362 13.0473 12.786C11.7971 11.5357 10.1014 10.8333 8.33329 10.8333C6.56518 10.8333 4.86949 11.5357 3.61925 12.786C2.36901 14.0362 1.66663 15.7319 1.66663 17.5" stroke="white" stroke-width="1.66667" stroke-linecap="round" stroke-linejoin="round"/>
<path d="M8.33329 10.8333C10.6345 10.8333 12.5 8.96785 12.5 6.66667C12.5 4.36548 10.6345 2.5 8.33329 2.5C6.03211 2.5 4.16663 4.36548 4.16663 6.66667C4.16663 8.96785 6.03211 10.8333 8.33329 10.8333Z" stroke="white" stroke-width="1.66667" stroke-linecap="round" stroke-linejoin="round"/>
<path d="M18.3333 16.6667C18.3333 13.8583 16.6667 11.25 15 10C15.5478 9.58898 15.9859 9.04924 16.2755 8.42856C16.565 7.80788 16.6971 7.12539 16.66 6.4415C16.6229 5.75761 16.4178 5.09341 16.0629 4.50767C15.7079 3.92193 15.2141 3.43272 14.625 3.08334" stroke="white" stroke-width="1.66667" stroke-linecap="round" stroke-linejoin="round"/>
</svg>
