<svg width="110" height="110" viewBox="0 0 110 110" fill="none" xmlns="http://www.w3.org/2000/svg">
<g opacity="0.3">
<path d="M5 2.5C5 3.88071 3.88071 5 2.5 5C1.11929 5 0 3.88071 0 2.5C0 1.11929 1.11929 0 2.5 0C3.88071 0 5 1.11929 5 2.5Z" fill="url(#paint0_radial_106_7229)"/>
<path d="M5 17.5C5 18.8807 3.88071 20 2.5 20C1.11929 20 0 18.8807 0 17.5C0 16.1193 1.11929 15 2.5 15C3.88071 15 5 16.1193 5 17.5Z" fill="url(#paint1_radial_106_7229)"/>
<path d="M20 17.5C20 18.8807 18.8807 20 17.5 20C16.1193 20 15 18.8807 15 17.5C15 16.1193 16.1193 15 17.5 15C18.8807 15 20 16.1193 20 17.5Z" fill="url(#paint2_radial_106_7229)"/>
<path d="M5 32.5C5 33.8807 3.88071 35 2.5 35C1.11929 35 0 33.8807 0 32.5C0 31.1193 1.11929 30 2.5 30C3.88071 30 5 31.1193 5 32.5Z" fill="url(#paint3_radial_106_7229)"/>
<path d="M20 32.5C20 33.8807 18.8807 35 17.5 35C16.1193 35 15 33.8807 15 32.5C15 31.1193 16.1193 30 17.5 30C18.8807 30 20 31.1193 20 32.5Z" fill="url(#paint4_radial_106_7229)"/>
<path d="M35 32.5C35 33.8807 33.8807 35 32.5 35C31.1193 35 30 33.8807 30 32.5C30 31.1193 31.1193 30 32.5 30C33.8807 30 35 31.1193 35 32.5Z" fill="url(#paint5_radial_106_7229)"/>
<path d="M5 47.5C5 48.8807 3.88071 50 2.5 50C1.11929 50 0 48.8807 0 47.5C0 46.1193 1.11929 45 2.5 45C3.88071 45 5 46.1193 5 47.5Z" fill="url(#paint6_radial_106_7229)"/>
<path d="M20 47.5C20 48.8807 18.8807 50 17.5 50C16.1193 50 15 48.8807 15 47.5C15 46.1193 16.1193 45 17.5 45C18.8807 45 20 46.1193 20 47.5Z" fill="url(#paint7_radial_106_7229)"/>
<path d="M35 47.5C35 48.8807 33.8807 50 32.5 50C31.1193 50 30 48.8807 30 47.5C30 46.1193 31.1193 45 32.5 45C33.8807 45 35 46.1193 35 47.5Z" fill="url(#paint8_radial_106_7229)"/>
<path d="M50 47.5C50 48.8807 48.8807 50 47.5 50C46.1193 50 45 48.8807 45 47.5C45 46.1193 46.1193 45 47.5 45C48.8807 45 50 46.1193 50 47.5Z" fill="url(#paint9_radial_106_7229)"/>
<path d="M5 62.5C5 63.8807 3.88071 65 2.5 65C1.11929 65 0 63.8807 0 62.5C0 61.1193 1.11929 60 2.5 60C3.88071 60 5 61.1193 5 62.5Z" fill="url(#paint10_radial_106_7229)"/>
<path d="M20 62.5C20 63.8807 18.8807 65 17.5 65C16.1193 65 15 63.8807 15 62.5C15 61.1193 16.1193 60 17.5 60C18.8807 60 20 61.1193 20 62.5Z" fill="url(#paint11_radial_106_7229)"/>
<path d="M35 62.5C35 63.8807 33.8807 65 32.5 65C31.1193 65 30 63.8807 30 62.5C30 61.1193 31.1193 60 32.5 60C33.8807 60 35 61.1193 35 62.5Z" fill="url(#paint12_radial_106_7229)"/>
<path d="M50 62.5C50 63.8807 48.8807 65 47.5 65C46.1193 65 45 63.8807 45 62.5C45 61.1193 46.1193 60 47.5 60C48.8807 60 50 61.1193 50 62.5Z" fill="url(#paint13_radial_106_7229)"/>
<path d="M65 62.5C65 63.8807 63.8807 65 62.5 65C61.1193 65 60 63.8807 60 62.5C60 61.1193 61.1193 60 62.5 60C63.8807 60 65 61.1193 65 62.5Z" fill="url(#paint14_radial_106_7229)"/>
<path d="M5 77.5C5 78.8807 3.88071 80 2.5 80C1.11929 80 0 78.8807 0 77.5C0 76.1193 1.11929 75 2.5 75C3.88071 75 5 76.1193 5 77.5Z" fill="url(#paint15_radial_106_7229)"/>
<path d="M20 77.5C20 78.8807 18.8807 80 17.5 80C16.1193 80 15 78.8807 15 77.5C15 76.1193 16.1193 75 17.5 75C18.8807 75 20 76.1193 20 77.5Z" fill="url(#paint16_radial_106_7229)"/>
<path d="M35 77.5C35 78.8807 33.8807 80 32.5 80C31.1193 80 30 78.8807 30 77.5C30 76.1193 31.1193 75 32.5 75C33.8807 75 35 76.1193 35 77.5Z" fill="url(#paint17_radial_106_7229)"/>
<path d="M50 77.5C50 78.8807 48.8807 80 47.5 80C46.1193 80 45 78.8807 45 77.5C45 76.1193 46.1193 75 47.5 75C48.8807 75 50 76.1193 50 77.5Z" fill="url(#paint18_radial_106_7229)"/>
<path d="M65 77.5C65 78.8807 63.8807 80 62.5 80C61.1193 80 60 78.8807 60 77.5C60 76.1193 61.1193 75 62.5 75C63.8807 75 65 76.1193 65 77.5Z" fill="url(#paint19_radial_106_7229)"/>
<path d="M80 77.5C80 78.8807 78.8807 80 77.5 80C76.1193 80 75 78.8807 75 77.5C75 76.1193 76.1193 75 77.5 75C78.8807 75 80 76.1193 80 77.5Z" fill="url(#paint20_radial_106_7229)"/>
<path d="M5 92.5C5 93.8807 3.88071 95 2.5 95C1.11929 95 0 93.8807 0 92.5C0 91.1193 1.11929 90 2.5 90C3.88071 90 5 91.1193 5 92.5Z" fill="url(#paint21_radial_106_7229)"/>
<path d="M20 92.5C20 93.8807 18.8807 95 17.5 95C16.1193 95 15 93.8807 15 92.5C15 91.1193 16.1193 90 17.5 90C18.8807 90 20 91.1193 20 92.5Z" fill="url(#paint22_radial_106_7229)"/>
<path d="M35 92.5C35 93.8807 33.8807 95 32.5 95C31.1193 95 30 93.8807 30 92.5C30 91.1193 31.1193 90 32.5 90C33.8807 90 35 91.1193 35 92.5Z" fill="url(#paint23_radial_106_7229)"/>
<path d="M50 92.5C50 93.8807 48.8807 95 47.5 95C46.1193 95 45 93.8807 45 92.5C45 91.1193 46.1193 90 47.5 90C48.8807 90 50 91.1193 50 92.5Z" fill="url(#paint24_radial_106_7229)"/>
<path d="M65 92.5C65 93.8807 63.8807 95 62.5 95C61.1193 95 60 93.8807 60 92.5C60 91.1193 61.1193 90 62.5 90C63.8807 90 65 91.1193 65 92.5Z" fill="url(#paint25_radial_106_7229)"/>
<path d="M80 92.5C80 93.8807 78.8807 95 77.5 95C76.1193 95 75 93.8807 75 92.5C75 91.1193 76.1193 90 77.5 90C78.8807 90 80 91.1193 80 92.5Z" fill="url(#paint26_radial_106_7229)"/>
<path d="M95 92.5C95 93.8807 93.8807 95 92.5 95C91.1193 95 90 93.8807 90 92.5C90 91.1193 91.1193 90 92.5 90C93.8807 90 95 91.1193 95 92.5Z" fill="url(#paint27_radial_106_7229)"/>
<path d="M5 107.5C5 108.881 3.88071 110 2.5 110C1.11929 110 0 108.881 0 107.5C0 106.119 1.11929 105 2.5 105C3.88071 105 5 106.119 5 107.5Z" fill="url(#paint28_radial_106_7229)"/>
<path d="M20 107.5C20 108.881 18.8807 110 17.5 110C16.1193 110 15 108.881 15 107.5C15 106.119 16.1193 105 17.5 105C18.8807 105 20 106.119 20 107.5Z" fill="url(#paint29_radial_106_7229)"/>
<path d="M35 107.5C35 108.881 33.8807 110 32.5 110C31.1193 110 30 108.881 30 107.5C30 106.119 31.1193 105 32.5 105C33.8807 105 35 106.119 35 107.5Z" fill="url(#paint30_radial_106_7229)"/>
<path d="M50 107.5C50 108.881 48.8807 110 47.5 110C46.1193 110 45 108.881 45 107.5C45 106.119 46.1193 105 47.5 105C48.8807 105 50 106.119 50 107.5Z" fill="url(#paint31_radial_106_7229)"/>
<path d="M65 107.5C65 108.881 63.8807 110 62.5 110C61.1193 110 60 108.881 60 107.5C60 106.119 61.1193 105 62.5 105C63.8807 105 65 106.119 65 107.5Z" fill="url(#paint32_radial_106_7229)"/>
<path d="M80 107.5C80 108.881 78.8807 110 77.5 110C76.1193 110 75 108.881 75 107.5C75 106.119 76.1193 105 77.5 105C78.8807 105 80 106.119 80 107.5Z" fill="url(#paint33_radial_106_7229)"/>
<path d="M95 107.5C95 108.881 93.8807 110 92.5 110C91.1193 110 90 108.881 90 107.5C90 106.119 91.1193 105 92.5 105C93.8807 105 95 106.119 95 107.5Z" fill="url(#paint34_radial_106_7229)"/>
<path d="M110 107.5C110 108.881 108.881 110 107.5 110C106.119 110 105 108.881 105 107.5C105 106.119 106.119 105 107.5 105C108.881 105 110 106.119 110 107.5Z" fill="url(#paint35_radial_106_7229)"/>
</g>
<defs>
<radialGradient id="paint0_radial_106_7229" cx="0" cy="0" r="1" gradientUnits="userSpaceOnUse" gradientTransform="translate(2.5 2.5) scale(2.5)">
<stop stop-color="#E9FF90"/>
<stop offset="1" stop-color="#CCFF00"/>
</radialGradient>
<radialGradient id="paint1_radial_106_7229" cx="0" cy="0" r="1" gradientUnits="userSpaceOnUse" gradientTransform="translate(2.5 17.5) scale(2.5)">
<stop stop-color="#E9FF90"/>
<stop offset="1" stop-color="#CCFF00"/>
</radialGradient>
<radialGradient id="paint2_radial_106_7229" cx="0" cy="0" r="1" gradientUnits="userSpaceOnUse" gradientTransform="translate(17.5 17.5) scale(2.5)">
<stop stop-color="#E9FF90"/>
<stop offset="1" stop-color="#CCFF00"/>
</radialGradient>
<radialGradient id="paint3_radial_106_7229" cx="0" cy="0" r="1" gradientUnits="userSpaceOnUse" gradientTransform="translate(2.5 32.5) scale(2.5)">
<stop stop-color="#E9FF90"/>
<stop offset="1" stop-color="#CCFF00"/>
</radialGradient>
<radialGradient id="paint4_radial_106_7229" cx="0" cy="0" r="1" gradientUnits="userSpaceOnUse" gradientTransform="translate(17.5 32.5) scale(2.5)">
<stop stop-color="#E9FF90"/>
<stop offset="1" stop-color="#CCFF00"/>
</radialGradient>
<radialGradient id="paint5_radial_106_7229" cx="0" cy="0" r="1" gradientUnits="userSpaceOnUse" gradientTransform="translate(32.5 32.5) scale(2.5)">
<stop stop-color="#E9FF90"/>
<stop offset="1" stop-color="#CCFF00"/>
</radialGradient>
<radialGradient id="paint6_radial_106_7229" cx="0" cy="0" r="1" gradientUnits="userSpaceOnUse" gradientTransform="translate(2.5 47.5) scale(2.5)">
<stop stop-color="#E9FF90"/>
<stop offset="1" stop-color="#CCFF00"/>
</radialGradient>
<radialGradient id="paint7_radial_106_7229" cx="0" cy="0" r="1" gradientUnits="userSpaceOnUse" gradientTransform="translate(17.5 47.5) scale(2.5)">
<stop stop-color="#E9FF90"/>
<stop offset="1" stop-color="#CCFF00"/>
</radialGradient>
<radialGradient id="paint8_radial_106_7229" cx="0" cy="0" r="1" gradientUnits="userSpaceOnUse" gradientTransform="translate(32.5 47.5) scale(2.5)">
<stop stop-color="#E9FF90"/>
<stop offset="1" stop-color="#CCFF00"/>
</radialGradient>
<radialGradient id="paint9_radial_106_7229" cx="0" cy="0" r="1" gradientUnits="userSpaceOnUse" gradientTransform="translate(47.5 47.5) scale(2.5)">
<stop stop-color="#E9FF90"/>
<stop offset="1" stop-color="#CCFF00"/>
</radialGradient>
<radialGradient id="paint10_radial_106_7229" cx="0" cy="0" r="1" gradientUnits="userSpaceOnUse" gradientTransform="translate(2.5 62.5) scale(2.5)">
<stop stop-color="#E9FF90"/>
<stop offset="1" stop-color="#CCFF00"/>
</radialGradient>
<radialGradient id="paint11_radial_106_7229" cx="0" cy="0" r="1" gradientUnits="userSpaceOnUse" gradientTransform="translate(17.5 62.5) scale(2.5)">
<stop stop-color="#E9FF90"/>
<stop offset="1" stop-color="#CCFF00"/>
</radialGradient>
<radialGradient id="paint12_radial_106_7229" cx="0" cy="0" r="1" gradientUnits="userSpaceOnUse" gradientTransform="translate(32.5 62.5) scale(2.5)">
<stop stop-color="#E9FF90"/>
<stop offset="1" stop-color="#CCFF00"/>
</radialGradient>
<radialGradient id="paint13_radial_106_7229" cx="0" cy="0" r="1" gradientUnits="userSpaceOnUse" gradientTransform="translate(47.5 62.5) scale(2.5)">
<stop stop-color="#E9FF90"/>
<stop offset="1" stop-color="#CCFF00"/>
</radialGradient>
<radialGradient id="paint14_radial_106_7229" cx="0" cy="0" r="1" gradientUnits="userSpaceOnUse" gradientTransform="translate(62.5 62.5) scale(2.5)">
<stop stop-color="#E9FF90"/>
<stop offset="1" stop-color="#CCFF00"/>
</radialGradient>
<radialGradient id="paint15_radial_106_7229" cx="0" cy="0" r="1" gradientUnits="userSpaceOnUse" gradientTransform="translate(2.5 77.5) scale(2.5)">
<stop stop-color="#E9FF90"/>
<stop offset="1" stop-color="#CCFF00"/>
</radialGradient>
<radialGradient id="paint16_radial_106_7229" cx="0" cy="0" r="1" gradientUnits="userSpaceOnUse" gradientTransform="translate(17.5 77.5) scale(2.5)">
<stop stop-color="#E9FF90"/>
<stop offset="1" stop-color="#CCFF00"/>
</radialGradient>
<radialGradient id="paint17_radial_106_7229" cx="0" cy="0" r="1" gradientUnits="userSpaceOnUse" gradientTransform="translate(32.5 77.5) scale(2.5)">
<stop stop-color="#E9FF90"/>
<stop offset="1" stop-color="#CCFF00"/>
</radialGradient>
<radialGradient id="paint18_radial_106_7229" cx="0" cy="0" r="1" gradientUnits="userSpaceOnUse" gradientTransform="translate(47.5 77.5) scale(2.5)">
<stop stop-color="#E9FF90"/>
<stop offset="1" stop-color="#CCFF00"/>
</radialGradient>
<radialGradient id="paint19_radial_106_7229" cx="0" cy="0" r="1" gradientUnits="userSpaceOnUse" gradientTransform="translate(62.5 77.5) scale(2.5)">
<stop stop-color="#E9FF90"/>
<stop offset="1" stop-color="#CCFF00"/>
</radialGradient>
<radialGradient id="paint20_radial_106_7229" cx="0" cy="0" r="1" gradientUnits="userSpaceOnUse" gradientTransform="translate(77.5 77.5) scale(2.5)">
<stop stop-color="#E9FF90"/>
<stop offset="1" stop-color="#CCFF00"/>
</radialGradient>
<radialGradient id="paint21_radial_106_7229" cx="0" cy="0" r="1" gradientUnits="userSpaceOnUse" gradientTransform="translate(2.5 92.5) scale(2.5)">
<stop stop-color="#E9FF90"/>
<stop offset="1" stop-color="#CCFF00"/>
</radialGradient>
<radialGradient id="paint22_radial_106_7229" cx="0" cy="0" r="1" gradientUnits="userSpaceOnUse" gradientTransform="translate(17.5 92.5) scale(2.5)">
<stop stop-color="#E9FF90"/>
<stop offset="1" stop-color="#CCFF00"/>
</radialGradient>
<radialGradient id="paint23_radial_106_7229" cx="0" cy="0" r="1" gradientUnits="userSpaceOnUse" gradientTransform="translate(32.5 92.5) scale(2.5)">
<stop stop-color="#E9FF90"/>
<stop offset="1" stop-color="#CCFF00"/>
</radialGradient>
<radialGradient id="paint24_radial_106_7229" cx="0" cy="0" r="1" gradientUnits="userSpaceOnUse" gradientTransform="translate(47.5 92.5) scale(2.5)">
<stop stop-color="#E9FF90"/>
<stop offset="1" stop-color="#CCFF00"/>
</radialGradient>
<radialGradient id="paint25_radial_106_7229" cx="0" cy="0" r="1" gradientUnits="userSpaceOnUse" gradientTransform="translate(62.5 92.5) scale(2.5)">
<stop stop-color="#E9FF90"/>
<stop offset="1" stop-color="#CCFF00"/>
</radialGradient>
<radialGradient id="paint26_radial_106_7229" cx="0" cy="0" r="1" gradientUnits="userSpaceOnUse" gradientTransform="translate(77.5 92.5) scale(2.5)">
<stop stop-color="#E9FF90"/>
<stop offset="1" stop-color="#CCFF00"/>
</radialGradient>
<radialGradient id="paint27_radial_106_7229" cx="0" cy="0" r="1" gradientUnits="userSpaceOnUse" gradientTransform="translate(92.5 92.5) scale(2.5)">
<stop stop-color="#E9FF90"/>
<stop offset="1" stop-color="#CCFF00"/>
</radialGradient>
<radialGradient id="paint28_radial_106_7229" cx="0" cy="0" r="1" gradientUnits="userSpaceOnUse" gradientTransform="translate(2.5 107.5) scale(2.5)">
<stop stop-color="#E9FF90"/>
<stop offset="1" stop-color="#CCFF00"/>
</radialGradient>
<radialGradient id="paint29_radial_106_7229" cx="0" cy="0" r="1" gradientUnits="userSpaceOnUse" gradientTransform="translate(17.5 107.5) scale(2.5)">
<stop stop-color="#E9FF90"/>
<stop offset="1" stop-color="#CCFF00"/>
</radialGradient>
<radialGradient id="paint30_radial_106_7229" cx="0" cy="0" r="1" gradientUnits="userSpaceOnUse" gradientTransform="translate(32.5 107.5) scale(2.5)">
<stop stop-color="#E9FF90"/>
<stop offset="1" stop-color="#CCFF00"/>
</radialGradient>
<radialGradient id="paint31_radial_106_7229" cx="0" cy="0" r="1" gradientUnits="userSpaceOnUse" gradientTransform="translate(47.5 107.5) scale(2.5)">
<stop stop-color="#E9FF90"/>
<stop offset="1" stop-color="#CCFF00"/>
</radialGradient>
<radialGradient id="paint32_radial_106_7229" cx="0" cy="0" r="1" gradientUnits="userSpaceOnUse" gradientTransform="translate(62.5 107.5) scale(2.5)">
<stop stop-color="#E9FF90"/>
<stop offset="1" stop-color="#CCFF00"/>
</radialGradient>
<radialGradient id="paint33_radial_106_7229" cx="0" cy="0" r="1" gradientUnits="userSpaceOnUse" gradientTransform="translate(77.5 107.5) scale(2.5)">
<stop stop-color="#E9FF90"/>
<stop offset="1" stop-color="#CCFF00"/>
</radialGradient>
<radialGradient id="paint34_radial_106_7229" cx="0" cy="0" r="1" gradientUnits="userSpaceOnUse" gradientTransform="translate(92.5 107.5) scale(2.5)">
<stop stop-color="#E9FF90"/>
<stop offset="1" stop-color="#CCFF00"/>
</radialGradient>
<radialGradient id="paint35_radial_106_7229" cx="0" cy="0" r="1" gradientUnits="userSpaceOnUse" gradientTransform="translate(107.5 107.5) scale(2.5)">
<stop stop-color="#E9FF90"/>
<stop offset="1" stop-color="#CCFF00"/>
</radialGradient>
</defs>
</svg>
